<svg xmlns="http://www.w3.org/2000/svg" xmlns:xlink="http://www.w3.org/1999/xlink" fill="none" version="1.1" width="620" height="320" viewBox="0 0 620 320"><path d="M0 0C0 0 0 0 0 0L620 0C620 0 620 0 620 0L620 320C620 320 620 320 620 320L0 320C0 320 0 320 0 320Z" fill="#FFFFFF" fill-opacity="NaN"/><clipPath id="master_svg_0"><rect x="0" y="0" width="620" height="320" rx="0"/></clipPath><g><g clip-path="url(#master_svg_0)" style="mix-blend-mode:passthrough"><rect x="0" y="0" width="620" height="320" rx="0" fill="#FFFFFF" fill-opacity="1"/><g><g style="mix-blend-mode:passthrough"><g><g style="mix-blend-mode:passthrough"><path d="M111.07749962806702,23.511991024017334L111.07749962806702,24.511991024017334L115.07749962806702,24.511991024017334L115.07749962806702,23.511991024017334L111.07749962806702,23.511991024017334ZM119.07749962806702,23.511991024017334L119.07749962806702,24.511991024017334L123.07749962806702,24.511991024017334L123.07749962806702,23.511991024017334L119.07749962806702,23.511991024017334ZM127.07749962806702,23.511991024017334L127.07749962806702,24.511991024017334L131.07749962806702,24.511991024017334L131.07749962806702,23.511991024017334L127.07749962806702,23.511991024017334ZM135.07749962806702,23.511991024017334L135.07749962806702,24.511991024017334L139.07749962806702,24.511991024017334L139.07749962806702,23.511991024017334L135.07749962806702,23.511991024017334ZM143.07749962806702,23.511991024017334L143.07749962806702,24.511991024017334L147.07749962806702,24.511991024017334L147.07749962806702,23.511991024017334L143.07749962806702,23.511991024017334ZM151.07749962806702,23.511991024017334L151.07749962806702,24.511991024017334L155.07749962806702,24.511991024017334L155.07749962806702,23.511991024017334L151.07749962806702,23.511991024017334ZM159.07749962806702,23.511991024017334L159.07749962806702,24.511991024017334L163.07749962806702,24.511991024017334L163.07749962806702,23.511991024017334L159.07749962806702,23.511991024017334ZM167.07749962806702,23.511991024017334L167.07749962806702,24.511991024017334L171.07749962806702,24.511991024017334L171.07749962806702,23.511991024017334L167.07749962806702,23.511991024017334ZM175.07749962806702,23.511991024017334L175.07749962806702,24.511991024017334L179.07749962806702,24.511991024017334L179.07749962806702,23.511991024017334L175.07749962806702,23.511991024017334ZM183.07749962806702,23.511991024017334L183.07749962806702,24.511991024017334L187.07749962806702,24.511991024017334L187.07749962806702,23.511991024017334L183.07749962806702,23.511991024017334ZM191.07749962806702,23.511991024017334L191.07749962806702,24.511991024017334L195.07749962806702,24.511991024017334L195.07749962806702,23.511991024017334L191.07749962806702,23.511991024017334ZM199.07749962806702,23.511991024017334L199.07749962806702,24.511991024017334L203.07749962806702,24.511991024017334L203.07749962806702,23.511991024017334L199.07749962806702,23.511991024017334ZM207.07749962806702,23.511991024017334L207.07749962806702,24.511991024017334L211.07749962806702,24.511991024017334L211.07749962806702,23.511991024017334L207.07749962806702,23.511991024017334ZM215.07749962806702,23.511991024017334L215.07749962806702,24.511991024017334L219.07749962806702,24.511991024017334L219.07749962806702,23.511991024017334L215.07749962806702,23.511991024017334ZM223.07749962806702,23.511991024017334L223.07749962806702,24.511991024017334L227.07749962806702,24.511991024017334L227.07749962806702,23.511991024017334L223.07749962806702,23.511991024017334ZM231.07749962806702,23.511991024017334L231.07749962806702,24.511991024017334L235.07749962806702,24.511991024017334L235.07749962806702,23.511991024017334L231.07749962806702,23.511991024017334ZM239.07749962806702,23.511991024017334L239.07749962806702,24.511991024017334L243.07749962806702,24.511991024017334L243.07749962806702,23.511991024017334L239.07749962806702,23.511991024017334ZM247.07749962806702,23.511991024017334L247.07749962806702,24.511991024017334L251.07749962806702,24.511991024017334L251.07749962806702,23.511991024017334L247.07749962806702,23.511991024017334ZM255.07749962806702,23.511991024017334L255.07749962806702,24.511991024017334L259.077499628067,24.511991024017334L259.077499628067,23.511991024017334L255.07749962806702,23.511991024017334ZM263.077499628067,23.511991024017334L263.077499628067,24.511991024017334L267.077499628067,24.511991024017334L267.077499628067,23.511991024017334L263.077499628067,23.511991024017334ZM271.077499628067,23.511991024017334L271.077499628067,24.511991024017334L275.077499628067,24.511991024017334L275.077499628067,23.511991024017334L271.077499628067,23.511991024017334ZM279.077499628067,23.511991024017334L279.077499628067,24.511991024017334L283.077499628067,24.511991024017334L283.077499628067,23.511991024017334L279.077499628067,23.511991024017334ZM287.077499628067,23.511991024017334L287.077499628067,24.511991024017334L291.077499628067,24.511991024017334L291.077499628067,23.511991024017334L287.077499628067,23.511991024017334ZM295.077499628067,23.511991024017334L295.077499628067,24.511991024017334L299.077499628067,24.511991024017334L299.077499628067,23.511991024017334L295.077499628067,23.511991024017334ZM303.077499628067,23.511991024017334L303.077499628067,24.511991024017334L307.077499628067,24.511991024017334L307.077499628067,23.511991024017334L303.077499628067,23.511991024017334ZM311.077499628067,23.511991024017334L311.077499628067,24.511991024017334L315.077499628067,24.511991024017334L315.077499628067,23.511991024017334L311.077499628067,23.511991024017334ZM319.077499628067,23.511991024017334L319.077499628067,24.511991024017334L323.077499628067,24.511991024017334L323.077499628067,23.511991024017334L319.077499628067,23.511991024017334ZM327.077499628067,23.511991024017334L327.077499628067,24.511991024017334L331.077499628067,24.511991024017334L331.077499628067,23.511991024017334L327.077499628067,23.511991024017334ZM335.077499628067,23.511991024017334L335.077499628067,24.511991024017334L339.077499628067,24.511991024017334L339.077499628067,23.511991024017334L335.077499628067,23.511991024017334ZM343.077499628067,23.511991024017334L343.077499628067,24.511991024017334L347.077499628067,24.511991024017334L347.077499628067,23.511991024017334L343.077499628067,23.511991024017334ZM351.077499628067,23.511991024017334L351.077499628067,24.511991024017334L355.077499628067,24.511991024017334L355.077499628067,23.511991024017334L351.077499628067,23.511991024017334ZM359.077499628067,23.511991024017334L359.077499628067,24.511991024017334L363.077499628067,24.511991024017334L363.077499628067,23.511991024017334L359.077499628067,23.511991024017334ZM367.077499628067,23.511991024017334L367.077499628067,24.511991024017334L371.077499628067,24.511991024017334L371.077499628067,23.511991024017334L367.077499628067,23.511991024017334ZM375.077499628067,23.511991024017334L375.077499628067,24.511991024017334L379.077499628067,24.511991024017334L379.077499628067,23.511991024017334L375.077499628067,23.511991024017334ZM383.077499628067,23.511991024017334L383.077499628067,24.511991024017334L387.077499628067,24.511991024017334L387.077499628067,23.511991024017334L383.077499628067,23.511991024017334ZM391.077499628067,23.511991024017334L391.077499628067,24.511991024017334L395.077499628067,24.511991024017334L395.077499628067,23.511991024017334L391.077499628067,23.511991024017334ZM399.077499628067,23.511991024017334L399.077499628067,24.511991024017334L403.077499628067,24.511991024017334L403.077499628067,23.511991024017334L399.077499628067,23.511991024017334ZM407.077499628067,23.511991024017334L407.077499628067,24.511991024017334L411.077499628067,24.511991024017334L411.077499628067,23.511991024017334L407.077499628067,23.511991024017334ZM415.077499628067,23.511991024017334L415.077499628067,24.511991024017334L419.077499628067,24.511991024017334L419.077499628067,23.511991024017334L415.077499628067,23.511991024017334ZM423.077499628067,23.511991024017334L423.077499628067,24.511991024017334L427.077499628067,24.511991024017334L427.077499628067,23.511991024017334L423.077499628067,23.511991024017334ZM431.077499628067,23.511991024017334L431.077499628067,24.511991024017334L435.077499628067,24.511991024017334L435.077499628067,23.511991024017334L431.077499628067,23.511991024017334ZM439.077499628067,23.511991024017334L439.077499628067,24.511991024017334L443.077499628067,24.511991024017334L443.077499628067,23.511991024017334L439.077499628067,23.511991024017334ZM447.077499628067,23.511991024017334L447.077499628067,24.511991024017334L448.945499628067,24.511991024017334L448.945499628067,24.643921024017335L449.945499628067,24.643921024017335L449.945499628067,23.511991024017334L447.077499628067,23.511991024017334ZM449.945499628067,28.643921024017335L448.945499628067,28.643921024017335L448.945499628067,32.64392102401733L449.945499628067,32.64392102401733L449.945499628067,28.643921024017335ZM449.945499628067,36.643891024017336L448.945499628067,36.643891024017336L448.945499628067,40.643891024017336L449.945499628067,40.643891024017336L449.945499628067,36.643891024017336ZM449.945499628067,44.643891024017336L448.945499628067,44.643891024017336L448.945499628067,48.643891024017336L449.945499628067,48.643891024017336L449.945499628067,44.643891024017336ZM449.945499628067,52.643891024017336L448.945499628067,52.643891024017336L448.945499628067,56.643891024017336L449.945499628067,56.643891024017336L449.945499628067,52.643891024017336ZM449.945499628067,60.643891024017336L448.945499628067,60.643891024017336L448.945499628067,64.64389102401734L449.945499628067,64.64389102401734L449.945499628067,60.643891024017336ZM449.945499628067,68.64389102401734L448.945499628067,68.64389102401734L448.945499628067,72.64389102401734L449.945499628067,72.64389102401734L449.945499628067,68.64389102401734ZM449.945499628067,76.64389102401734L448.945499628067,76.64389102401734L448.945499628067,80.64389102401734L449.945499628067,80.64389102401734L449.945499628067,76.64389102401734ZM449.945499628067,84.64389102401734L448.945499628067,84.64389102401734L448.945499628067,88.64389102401734L449.945499628067,88.64389102401734L449.945499628067,84.64389102401734ZM449.945499628067,92.64389102401734L448.945499628067,92.64389102401734L448.945499628067,96.64389102401734L449.945499628067,96.64389102401734L449.945499628067,92.64389102401734ZM449.945499628067,100.64389102401734L448.945499628067,100.64389102401734L448.945499628067,104.64389102401734L449.945499628067,104.64389102401734L449.945499628067,100.64389102401734ZM449.945499628067,108.64389102401734L448.945499628067,108.64389102401734L448.945499628067,112.64389102401734L449.945499628067,112.64389102401734L449.945499628067,108.64389102401734ZM449.945499628067,116.64389102401734L448.945499628067,116.64389102401734L448.945499628067,120.64389102401734L449.945499628067,120.64389102401734L449.945499628067,116.64389102401734ZM449.945499628067,124.64399102401734L448.945499628067,124.64399102401734L448.945499628067,128.64399102401734L449.945499628067,128.64399102401734L449.945499628067,124.64399102401734ZM449.945499628067,132.64399102401734L448.945499628067,132.64399102401734L448.945499628067,136.64399102401734L449.945499628067,136.64399102401734L449.945499628067,132.64399102401734ZM449.945499628067,140.64399102401734L448.945499628067,140.64399102401734L448.945499628067,144.64399102401734L449.945499628067,144.64399102401734L449.945499628067,140.64399102401734ZM449.945499628067,148.64399102401734L448.945499628067,148.64399102401734L448.945499628067,152.64399102401734L449.945499628067,152.64399102401734L449.945499628067,148.64399102401734ZM449.945499628067,156.64399102401734L448.945499628067,156.64399102401734L448.945499628067,160.64399102401734L449.945499628067,160.64399102401734L449.945499628067,156.64399102401734ZM449.65149962806703,164.34999102401733L449.65149962806703,163.34999102401733L445.65149962806703,163.34999102401733L445.65149962806703,164.34999102401733L449.65149962806703,164.34999102401733ZM441.65149962806703,164.34999102401733L441.65149962806703,163.34999102401733L437.65149962806703,163.34999102401733L437.65149962806703,164.34999102401733L441.65149962806703,164.34999102401733ZM433.65149962806703,164.34999102401733L433.65149962806703,163.34999102401733L429.65149962806703,163.34999102401733L429.65149962806703,164.34999102401733L433.65149962806703,164.34999102401733ZM425.65149962806703,164.34999102401733L425.65149962806703,163.34999102401733L421.65149962806703,163.34999102401733L421.65149962806703,164.34999102401733L425.65149962806703,164.34999102401733ZM417.65149962806703,164.34999102401733L417.65149962806703,163.34999102401733L413.65149962806703,163.34999102401733L413.65149962806703,164.34999102401733L417.65149962806703,164.34999102401733ZM409.65149962806703,164.34999102401733L409.65149962806703,163.34999102401733L405.65149962806703,163.34999102401733L405.65149962806703,164.34999102401733L409.65149962806703,164.34999102401733ZM401.65149962806703,164.34999102401733L401.65149962806703,163.34999102401733L397.65149962806703,163.34999102401733L397.65149962806703,164.34999102401733L401.65149962806703,164.34999102401733ZM393.65149962806703,164.34999102401733L393.65149962806703,163.34999102401733L389.65149962806703,163.34999102401733L389.65149962806703,164.34999102401733L393.65149962806703,164.34999102401733ZM385.65149962806703,164.34999102401733L385.65149962806703,163.34999102401733L381.65149962806703,163.34999102401733L381.65149962806703,164.34999102401733L385.65149962806703,164.34999102401733ZM377.65149962806703,164.34999102401733L377.65149962806703,163.34999102401733L373.65149962806703,163.34999102401733L373.65149962806703,164.34999102401733L377.65149962806703,164.34999102401733ZM369.65149962806703,164.34999102401733L369.65149962806703,163.34999102401733L365.65149962806703,163.34999102401733L365.65149962806703,164.34999102401733L369.65149962806703,164.34999102401733ZM361.65149962806703,164.34999102401733L361.65149962806703,163.34999102401733L357.65149962806703,163.34999102401733L357.65149962806703,164.34999102401733L361.65149962806703,164.34999102401733ZM353.65149962806703,164.34999102401733L353.65149962806703,163.34999102401733L349.65149962806703,163.34999102401733L349.65149962806703,164.34999102401733L353.65149962806703,164.34999102401733ZM345.65149962806703,164.34999102401733L345.65149962806703,163.34999102401733L341.65149962806703,163.34999102401733L341.65149962806703,164.34999102401733L345.65149962806703,164.34999102401733ZM337.65149962806703,164.34999102401733L337.65149962806703,163.34999102401733L333.65149962806703,163.34999102401733L333.65149962806703,164.34999102401733L337.65149962806703,164.34999102401733ZM329.65149962806703,164.34999102401733L329.65149962806703,163.34999102401733L325.65149962806703,163.34999102401733L325.65149962806703,164.34999102401733L329.65149962806703,164.34999102401733ZM321.65149962806703,164.34999102401733L321.65149962806703,163.34999102401733L317.65149962806703,163.34999102401733L317.65149962806703,164.34999102401733L321.65149962806703,164.34999102401733ZM313.65149962806703,164.34999102401733L313.65149962806703,163.34999102401733L309.65149962806703,163.34999102401733L309.65149962806703,164.34999102401733L313.65149962806703,164.34999102401733ZM305.65149962806703,164.34999102401733L305.65149962806703,163.34999102401733L301.65149962806703,163.34999102401733L301.65149962806703,164.34999102401733L305.65149962806703,164.34999102401733ZM297.65149962806703,164.34999102401733L297.65149962806703,163.34999102401733L293.65149962806703,163.34999102401733L293.65149962806703,164.34999102401733L297.65149962806703,164.34999102401733ZM289.65149962806703,164.34999102401733L289.65149962806703,163.34999102401733L285.65149962806703,163.34999102401733L285.65149962806703,164.34999102401733L289.65149962806703,164.34999102401733ZM281.65149962806703,164.34999102401733L281.65149962806703,163.34999102401733L277.65149962806703,163.34999102401733L277.65149962806703,164.34999102401733L281.65149962806703,164.34999102401733ZM273.65149962806703,164.34999102401733L273.65149962806703,163.34999102401733L269.65149962806703,163.34999102401733L269.65149962806703,164.34999102401733L273.65149962806703,164.34999102401733ZM265.65149962806703,164.34999102401733L265.65149962806703,163.34999102401733L261.65149962806703,163.34999102401733L261.65149962806703,164.34999102401733L265.65149962806703,164.34999102401733ZM257.65149962806703,164.34999102401733L257.65149962806703,163.34999102401733L253.65149962806703,163.34999102401733L253.65149962806703,164.34999102401733L257.65149962806703,164.34999102401733ZM249.65149962806703,164.34999102401733L249.65149962806703,163.34999102401733L245.65149962806703,163.34999102401733L245.65149962806703,164.34999102401733L249.65149962806703,164.34999102401733ZM241.65149962806703,164.34999102401733L241.65149962806703,163.34999102401733L237.65149962806703,163.34999102401733L237.65149962806703,164.34999102401733L241.65149962806703,164.34999102401733ZM233.65149962806703,164.34999102401733L233.65149962806703,163.34999102401733L229.65149962806703,163.34999102401733L229.65149962806703,164.34999102401733L233.65149962806703,164.34999102401733ZM225.65149962806703,164.34999102401733L225.65149962806703,163.34999102401733L221.65149962806703,163.34999102401733L221.65149962806703,164.34999102401733L225.65149962806703,164.34999102401733ZM217.65149962806703,164.34999102401733L217.65149962806703,163.34999102401733L213.65149962806703,163.34999102401733L213.65149962806703,164.34999102401733L217.65149962806703,164.34999102401733ZM209.65199962806702,164.34999102401733L209.65199962806702,163.34999102401733L205.65199962806702,163.34999102401733L205.65199962806702,164.34999102401733L209.65199962806702,164.34999102401733ZM201.65199962806702,164.34999102401733L201.65199962806702,163.34999102401733L197.65199962806702,163.34999102401733L197.65199962806702,164.34999102401733L201.65199962806702,164.34999102401733ZM193.65199962806702,164.34999102401733L193.65199962806702,163.34999102401733L189.65199962806702,163.34999102401733L189.65199962806702,164.34999102401733L193.65199962806702,164.34999102401733ZM185.65199962806702,164.34999102401733L185.65199962806702,163.34999102401733L181.65199962806702,163.34999102401733L181.65199962806702,164.34999102401733L185.65199962806702,164.34999102401733ZM177.65199962806702,164.34999102401733L177.65199962806702,163.34999102401733L173.65199962806702,163.34999102401733L173.65199962806702,164.34999102401733L177.65199962806702,164.34999102401733ZM169.65199962806702,164.34999102401733L169.65199962806702,163.34999102401733L165.65199962806702,163.34999102401733L165.65199962806702,164.34999102401733L169.65199962806702,164.34999102401733ZM161.65199962806702,164.34999102401733L161.65199962806702,163.34999102401733L157.65199962806702,163.34999102401733L157.65199962806702,164.34999102401733L161.65199962806702,164.34999102401733ZM153.65199962806702,164.34999102401733L153.65199962806702,163.34999102401733L149.65199962806702,163.34999102401733L149.65199962806702,164.34999102401733L153.65199962806702,164.34999102401733ZM145.65199962806702,164.34999102401733L145.65199962806702,163.34999102401733L141.65199962806702,163.34999102401733L141.65199962806702,164.34999102401733L145.65199962806702,164.34999102401733ZM137.65199962806702,164.34999102401733L137.65199962806702,163.34999102401733L133.65199962806702,163.34999102401733L133.65199962806702,164.34999102401733L137.65199962806702,164.34999102401733ZM129.65199962806702,164.34999102401733L129.65199962806702,163.34999102401733L125.65199962806702,163.34999102401733L125.65199962806702,164.34999102401733L129.65199962806702,164.34999102401733ZM121.65199962806702,164.34999102401733L121.65199962806702,163.34999102401733L117.65195962806702,163.34999102401733L117.65195962806702,164.34999102401733L121.65199962806702,164.34999102401733ZM113.65195962806702,164.34999102401733L113.65195962806702,163.34999102401733L112.07749962806702,163.34999102401733L112.07749962806702,162.92499102401734L111.07749962806702,162.92499102401734L111.07749962806702,164.34999102401733L113.65195962806702,164.34999102401733ZM111.07749962806702,158.92499102401734L112.07749962806702,158.92499102401734L112.07749962806702,154.92499102401734L111.07749962806702,154.92499102401734L111.07749962806702,158.92499102401734ZM111.07749962806702,150.92499102401734L112.07749962806702,150.92499102401734L112.07749962806702,146.92499102401734L111.07749962806702,146.92499102401734L111.07749962806702,150.92499102401734ZM111.07749962806702,142.92499102401734L112.07749962806702,142.92499102401734L112.07749962806702,138.92499102401734L111.07749962806702,138.92499102401734L111.07749962806702,142.92499102401734ZM111.07749962806702,134.92499102401734L112.07749962806702,134.92499102401734L112.07749962806702,130.92499102401734L111.07749962806702,130.92499102401734L111.07749962806702,134.92499102401734ZM111.07749962806702,126.92499102401733L112.07749962806702,126.92499102401733L112.07749962806702,122.92479102401734L111.07749962806702,122.92479102401734L111.07749962806702,126.92499102401733ZM111.07749962806702,118.92479102401734L112.07749962806702,118.92479102401734L112.07749962806702,114.92479102401734L111.07749962806702,114.92479102401734L111.07749962806702,118.92479102401734ZM111.07749962806702,110.92479102401734L112.07749962806702,110.92479102401734L112.07749962806702,106.92479102401734L111.07749962806702,106.92479102401734L111.07749962806702,110.92479102401734ZM111.07749962806702,102.92479102401734L112.07749962806702,102.92479102401734L112.07749962806702,98.92479102401734L111.07749962806702,98.92479102401734L111.07749962806702,102.92479102401734ZM111.07749962806702,94.92479102401734L112.07749962806702,94.92479102401734L112.07749962806702,90.92479102401734L111.07749962806702,90.92479102401734L111.07749962806702,94.92479102401734ZM111.07749962806702,86.92479102401734L112.07749962806702,86.92479102401734L112.07749962806702,82.92479102401734L111.07749962806702,82.92479102401734L111.07749962806702,86.92479102401734ZM111.07749962806702,78.92479102401734L112.07749962806702,78.92479102401734L112.07749962806702,74.92479102401734L111.07749962806702,74.92479102401734L111.07749962806702,78.92479102401734ZM111.07749962806702,70.92479102401734L112.07749962806702,70.92479102401734L112.07749962806702,66.92479102401734L111.07749962806702,66.92479102401734L111.07749962806702,70.92479102401734ZM111.07749962806702,62.92479102401733L112.07749962806702,62.92479102401733L112.07749962806702,58.92479102401733L111.07749962806702,58.92479102401733L111.07749962806702,62.92479102401733ZM111.07749962806702,54.92479102401734L112.07749962806702,54.92479102401734L112.07749962806702,50.92479102401734L111.07749962806702,50.92479102401734L111.07749962806702,54.92479102401734ZM111.07749962806702,46.92479102401734L112.07749962806702,46.92479102401734L112.07749962806702,42.92479102401734L111.07749962806702,42.92479102401734L111.07749962806702,46.92479102401734ZM111.07749962806702,38.92479102401734L112.07749962806702,38.92479102401734L112.07749962806702,34.92479102401734L111.07749962806702,34.92479102401734L111.07749962806702,38.92479102401734ZM111.07749962806702,30.924771024017332L112.07749962806702,30.924771024017332L112.07749962806702,26.924771024017335L111.07749962806702,26.924771024017335L111.07749962806702,30.924771024017332Z" fill-rule="evenodd" fill="#6B7075" fill-opacity="0.25"/></g><g style="mix-blend-mode:passthrough"><rect x="109.50491333007812" y="22.000015258789062" width="3.145174503326416" height="3.023951530456543" rx="0" fill-opacity="0" stroke-opacity="1" stroke="#6B7075" stroke-width="1" fill="none" stroke-dasharray=""/></g><g style="mix-blend-mode:passthrough"><rect x="447.8548278808594" y="22.000015258789062" width="3.145174503326416" height="3.023951530456543" rx="0" fill-opacity="0" stroke-opacity="1" stroke="#6B7075" stroke-width="1" fill="none" stroke-dasharray=""/></g><g style="mix-blend-mode:passthrough"><path d="M393.0255158935547,190.49998474121094Q392.7376158935547,190.49998474121094,392.4501158935547,190.50257474121094Q390.7635158935547,190.51775474121095,389.0865158935547,190.62190474121093Q388.8002158935547,190.63967474121094,388.5143158935547,190.66004474121092L388.4432158935547,189.66257274121094C389.9561158935547,189.55481394121094,391.4842158935547,189.49998474121094,393.0255158935547,189.49998474121094L393.0255158935547,190.49998474121094ZM393.0255158935547,192.47922474121094L392.0255158935547,192.47922474121094L392.0255158935547,196.90512474121093L393.0255158935547,196.90512474121093L393.0255158935547,192.47922474121094ZM393.0255158935547,200.47788474121094L392.0255158935547,200.47788474121094L392.0255158935547,204.90718474121093L393.0255158935547,204.90718474121093L393.0255158935547,200.47788474121094ZM393.0255158935547,208.47598474121094L392.0255158935547,208.47598474121094L392.0255158935547,212.90938474121094L393.0255158935547,212.90938474121094L393.0255158935547,208.47598474121094ZM393.0255158935547,216.46018474121092L392.0255158935547,216.46018474121092L392.0255158935547,220.89498474121095L393.0255158935547,220.89498474121095L393.0255158935547,216.46018474121092ZM393.0255158935547,224.45608474121093L392.0255158935547,224.45608474121093L392.0255158935547,228.90258474121094L393.0255158935547,228.90258474121094L393.0255158935547,224.45608474121093ZM393.0255158935547,232.47658474121093L392.0255158935547,232.47658474121093L392.0255158935547,236.90858474121094L393.0255158935547,236.90858474121094L393.0255158935547,232.47658474121093ZM393.0255158935547,240.46358474121092L392.0255158935547,240.46358474121092L392.0255158935547,244.89858474121093L393.0255158935547,244.89858474121093L393.0255158935547,240.46358474121092ZM393.0255158935547,248.47548474121095L392.0255158935547,248.47548474121095L392.0255158935547,252.93488474121094L393.0255158935547,252.93488474121094L393.0255158935547,248.47548474121095ZM393.0255158935547,256.50258474121097L392.0255158935547,256.50258474121097L392.0255158935547,260.92118474121094L393.0255158935547,260.92118474121094L393.0255158935547,256.50258474121097ZM393.0255158935547,264.49208474121093L392.0255158935547,264.49208474121093L392.0255158935547,268.9375847412109L393.0255158935547,268.9375847412109L393.0255158935547,264.49208474121093ZM393.0255158935547,272.4959847412109L392.0255158935547,272.4959847412109L392.0255158935547,276.9253847412109L393.0255158935547,276.9253847412109L393.0255158935547,272.4959847412109ZM393.0255158935547,280.50128474121095L392.0255158935547,280.50128474121095L392.0255158935547,284.94768474121094L393.0255158935547,284.94768474121094L393.0255158935547,280.50128474121095ZM393.0255158935547,288.48048474121094L392.0255158935547,288.48048474121094L392.0255158935547,292.92298474121094L393.0255158935547,292.92298474121094L393.0255158935547,288.48048474121094ZM393.0255158935547,296.4819847412109L392.0255158935547,296.4819847412109L392.0255158935547,300.93198474121095L393.0255158935547,300.93198474121095L393.0255158935547,296.4819847412109ZM393.0255158935547,304.49198474121096L392.0255158935547,304.49198474121096L392.0255158935547,308.93198474121095L393.0255158935547,308.93198474121095L393.0255158935547,304.49198474121096ZM389.9021158935547,309.28098474121094L389.9504158935547,308.2819847412109Q389.7342158935547,308.27198474121093,389.5183158935547,308.2599847412109Q387.7638158935547,308.16298474121095,386.0231158935547,307.96898474121093Q385.8086158935547,307.94498474121093,385.59411589355466,307.91998474121095L385.4766158935547,308.91298474121095C386.9366158935547,309.08598474121095,388.4124158935547,309.20898474121094,389.9021158935547,309.28098474121094ZM381.95281589355466,308.3949847412109L382.12601589355467,307.4099847412109Q381.91431589355466,307.3729847412109,381.7021158935547,307.33398474121094Q379.9764158935547,307.01798474121097,378.2745158935547,306.60598474121093Q378.06531589355467,306.5559847412109,377.85721589355467,306.50398474121096L377.6151158935547,307.4739847412109C379.0417158935547,307.8299847412109,380.48831589355467,308.13798474121097,381.95281589355466,308.3949847412109ZM374.1839158935547,306.51398474121095L374.48061589355467,305.5589847412109Q374.27481589355466,305.49498474121094,374.0688158935547,305.4289847412109Q372.3976158935547,304.89698474121093,370.7608158935547,304.27098474121095Q370.5596158935547,304.19398474121095,370.35901589355467,304.1159847412109L369.9952158935547,305.04698474121096C371.3677158935547,305.5829847412109,372.7646158935547,306.0729847412109,374.1839158935547,306.51398474121095ZM366.7165158935547,303.6569847412109L367.1329158935547,302.7479847412109Q366.9370158935547,302.65898474121093,366.7425158935547,302.5679847412109Q365.1528158935547,301.82598474121096,363.60951589355466,300.9959847412109Q363.4193158935547,300.89298474121097,363.23041589355466,300.78998474121096L362.75031589355467,301.66698474121097C364.0441158935547,302.37498474121094,365.3669158935547,303.0389847412109,366.7165158935547,303.6569847412109ZM359.6761158935547,299.86798474121093L360.20571589355467,299.0199847412109Q360.0229158935547,298.90598474121094,359.8411158935547,298.78998474121096Q358.3602158935547,297.85098474121094,356.9373158935547,296.8299847412109Q356.76211589355466,296.70398474121095,356.58841589355467,296.57698474121094L355.99941589355467,297.3849847412109C357.1922158935547,298.25498474121093,358.4185158935547,299.0829847412109,359.6761158935547,299.86798474121093ZM353.1821158935547,295.2049847412109L353.8167158935547,294.43198474121095Q353.6499158935547,294.29598474121093,353.48451589355466,294.15798474121095Q352.1368158935547,293.0349847412109,350.8585158935547,291.8379847412109Q350.7013158935547,291.69098474121097,350.5451158935547,291.54298474121094L349.8564158935547,292.26798474121097C350.9278158935547,293.2849847412109,352.0371158935547,294.2649847412109,353.1821158935547,295.2049847412109ZM347.3465158935547,289.7409847412109L348.0762158935547,289.05738474121097Q347.9289158935547,288.9001847412109,347.78271589355467,288.74178474121095Q346.5923158935547,287.4529847412109,345.4821158935547,286.09988474121093Q345.3454158935547,285.93328474121097,345.2101158935547,285.7658847412109L344.43241589355466,286.39448474121093C345.36221589355466,287.54458474121094,346.3343158935547,288.6608847412109,347.3465158935547,289.7409847412109ZM342.2760158935547,283.55978474121093L343.0895158935547,282.97818474121095Q342.96411589355466,282.8027847412109,342.84021589355467,282.6268847412109Q341.8303158935547,281.19248474121093,340.9101958935547,279.70458474121097Q340.7970458935547,279.52168474121095,340.6850858935547,279.33758474121095L339.8307458935547,279.85728474121095C340.6001158935547,281.1220847412109,341.4160158935547,282.3569847412109,342.2760158935547,283.55978474121093ZM338.0718658935547,276.7604847412109L338.9558558935547,276.29298474121094Q338.8551758935547,276.10258474121093,338.75594589355467,275.91158474121096Q337.9476458935547,274.35528474121094,337.2366858935547,272.7568847412109Q337.14911589355467,272.55998474121094,337.0629658935547,272.36228474121094L336.14625589355467,272.7618847412109C336.7386858935547,274.12108474121095,337.38130589355467,275.45468474121094,338.0718658935547,276.7604847412109ZM334.8234858935547,269.4558847412109L335.7628158935547,269.1128847412109Q335.68903589355466,268.91078474121093,335.61680589355467,268.70828474121095Q335.0282058935547,267.0580847412109,334.5422958935547,265.37718474121095Q334.4824758935547,265.17018474121096,334.4242258935547,264.9628847412109L333.4614958935547,265.2332847412109C333.8630758935547,266.66278474121094,334.31779589355466,268.07108474121094,334.8234858935547,269.4558847412109ZM332.6036258935547,261.7754847412109L333.5811358935547,261.5645847412109Q333.5357158935547,261.3539847412109,333.4918858935547,261.1431847412109Q333.1358158935547,259.4302847412109,332.8850558935547,257.69738474121095Q332.8542758935547,257.4846847412109,332.8250958935547,257.2717847412109L331.8343548935547,257.40748474121096C332.0363148935547,258.88108474121094,332.2934358935547,260.33778474121095,332.6036258935547,261.7754847412109ZM331.4586318935547,253.86618474121093L332.45580589355467,253.79098474121093Q332.43959589355467,253.57608474121093,332.4249958935547,253.36098474121093Q332.30651589355466,251.61608474121095,332.2935158935547,249.86098474121093Q332.2919158935547,249.64468474121094,332.2919158935547,249.42818474121094L331.2919158935547,249.42818474121094C331.2919158935547,250.92088474121095,331.3481356935547,252.40088474121094,331.4586318935547,253.86618474121093ZM331.3669141935547,246.44808474121095L332.3656458935547,246.49848474121094Q332.3800858935547,246.21218474121093,332.3973558935547,245.92618474121093Q332.49878589355467,244.24638474121093,332.69765589355467,242.57908474121092Q332.7315458935547,242.29498474121095,332.7682658935547,242.01118474121094L331.7765318935547,241.88288474121094C331.5817588935547,243.38798474121094,331.4444858935547,244.91038474121095,331.3669141935547,246.44808474121095ZM332.3144558935547,238.50768474121094L333.2969358935547,238.69408474121093Q333.3501158935547,238.41368474121094,333.4060858935547,238.13388474121092Q333.7355558935547,236.48678474121095,334.1613958935547,234.86168474121092Q334.23390589355466,234.58498474121095,334.3091958935547,234.30898474121093L333.3444458935547,234.04588474121095C332.9445358935547,235.51188474121093,332.6004258935547,236.99988474121093,332.3144558935547,238.50768474121094ZM334.3407558935547,230.77558474121093L335.2883758935547,231.09498474121094Q335.3797158935547,230.82398474121095,335.4737458935547,230.55398474121094Q336.0258458935547,228.96848474121094,336.6709458935547,227.41528474121094Q336.7804758935547,227.15148474121094,336.8926458935547,226.88888474121094L335.9729758935547,226.49618474121093C335.3749658935547,227.89658474121094,334.8300758935547,229.32388474121095,334.3407558935547,230.77558474121093ZM337.4060758935547,223.39338474121092L338.30135589355467,223.83888474121093Q338.4288058935547,223.58278474121093,338.5588058935547,223.32788474121094Q339.3215158935547,221.83238474121094,340.1714758935547,220.37958474121095Q340.31583589355466,220.13288474121094,340.4626658935547,219.88748474121093L339.6045258935547,219.37398474121093C338.8212758935547,220.68318474121094,338.0876258935547,222.02378474121093,337.4060758935547,223.39338474121092ZM341.4427158935547,216.49238474121094L342.2701158935547,217.05408474121094Q342.43061589355466,216.81758474121094,342.5935158935547,216.58258474121095Q343.5502158935547,215.20258474121093,344.5863158935547,213.87558474121093Q344.76231589355467,213.65028474121095,344.9405158935547,213.42648474121094L344.1583158935547,212.80348474121092C343.2068158935547,213.99808474121093,342.30081589355467,215.22858474121094,341.4427158935547,216.49238474121094ZM346.36241589355467,210.19098474121094L347.1083158935547,210.85708474121094Q347.29881589355466,210.64368474121093,347.4914158935547,210.43218474121093Q348.6224158935547,209.18988474121093,349.82371589355466,208.01028474121094Q350.0278158935547,207.80988474121094,350.2339158935547,207.61138474121094L349.5401158935547,206.89118474121094C348.4391158935547,207.95188474121093,347.3790158935547,209.05268474121095,346.36241589355467,210.19098474121094ZM352.0666158935547,204.58928474121095L352.71931589355466,205.34688474121094Q352.93601589355467,205.16018474121094,353.1544158935547,204.97558474121092Q354.4381158935547,203.89068474121095,355.7819158935547,202.87698474121095Q356.0104158935547,202.70468474121094,356.2407158935547,202.53438474121094L355.6460158935547,201.73038474121094C354.4158158935547,202.64038474121094,353.22181589355466,203.59408474121093,352.0666158935547,204.58928474121095ZM358.4497158935547,199.77408474121094L358.9991158935547,200.60968474121094Q359.2380158935547,200.45258474121093,359.4782158935547,200.29788474121094Q360.8916158935547,199.38745474121095,362.3543158935547,198.55542474121094Q362.60291589355467,198.41400474121093,362.85291589355467,198.27486474121093L362.3666158935547,197.40106474121094C361.0287158935547,198.14563474121093,359.7223158935547,198.93743474121095,358.4497158935547,199.77408474121094ZM365.39801589355466,195.82150474121093L365.8356158935547,196.72069474121093Q366.09321589355466,196.59535474121094,366.35201589355466,196.47238474121093Q367.8713158935547,195.75057474121093,369.42901589355466,195.11269474121093Q369.6932158935547,195.00449474121095,369.9585158935547,194.89870474121093L369.58821589355466,193.96980474121094C368.1640158935547,194.53760474121094,366.7665158935547,195.15559474121093,365.39801589355466,195.82150474121093ZM372.7962158935547,192.79154474121094L373.1152158935547,193.73930474121093Q373.3863158935547,193.64805474121093,373.6583158935547,193.55933474121093Q375.2569158935547,193.03784474121093,376.8834158935547,192.60382474121093Q377.1605158935547,192.52991474121094,377.4382158935547,192.45857474121092L377.18941589355467,191.49002474121093C375.7022158935547,191.87206474121095,374.2371158935547,192.30662474121092,372.7962158935547,192.79154474121094ZM380.5231158935547,190.72964474121093L380.7189158935547,191.71029474121093Q380.9988158935547,191.65440474121093,381.2792158935547,191.60108474121094L381.0924158935547,190.61867474121092C380.9023158935547,190.65482474121094,380.71251589355467,190.69181474121095,380.5231158935547,190.72964474121093ZM384.4656158935547,190.07143074121095L384.5990158935547,191.06248474121094Q384.8823158935547,191.02434474121094,385.1660158935547,190.98877474121093L385.0417158935547,189.99653874121094C384.8494158935547,190.02064474121093,384.6573158935547,190.04560974121094,384.4656158935547,190.07143074121095Z" fill-rule="evenodd" transform="matrix(-1,0,0,-1,662.5838317871094,378.9999694824219)" fill="#6B7075" fill-opacity="0.25"/></g><g style="mix-blend-mode:passthrough"><line x1="208.4891128540039" y1="23.511991024017334" x2="332.7286148071289" y2="24.511991024017334" transform="matrix(0,1,-1,0,232.00110387802124,-184.97712182998657)" fill-opacity="0" stroke-opacity="0.25" stroke="#6B7075" stroke-width="1" fill="none" stroke-dasharray="4 4"/></g><g style="mix-blend-mode:passthrough"><line x1="352.53392028808594" y1="69.28443908691406" x2="495.5424346923828" y2="70.28443908691406" transform="matrix(-1,0,0,-1,705.0678405761719,138.56887817382812)" fill-opacity="0" stroke-opacity="0.25" stroke="#6B7075" stroke-width="1" fill="none" stroke-dasharray="4 4"/></g><g style="mix-blend-mode:passthrough"><line x1="352.53392028808594" y1="109.5239486694336" x2="495.5424346923828" y2="110.5239486694336" transform="matrix(-1,0,0,-1,705.0678405761719,219.0478973388672)" fill-opacity="0" stroke-opacity="0.25" stroke="#6B7075" stroke-width="1" fill="none" stroke-dasharray="4 4"/></g><g style="mix-blend-mode:passthrough"><line x1="352.53392028808594" y1="23.511991024017334" x2="476.77342224121094" y2="24.511991024017334" transform="matrix(0,1,-1,0,376.04591131210327,-329.0219292640686)" fill-opacity="0" stroke-opacity="0.25" stroke="#6B7075" stroke-width="1" fill="none" stroke-dasharray="4 4"/></g></g></g><g style="mix-blend-mode:passthrough"><path d="M130.63174438476562,133.73157104492188Q125.45986438476562,133.73157104492188,122.10049438476562,131.12217104492188Q118.75674438476562,128.51287104492187,118.75674438476562,123.18467104492188Q118.75674438476562,119.21597104492187,120.58486438476562,116.87217104492188Q122.42862438476563,114.52847104492187,125.49112438476563,113.40347104492187Q128.55364438476562,112.26287104492187,132.19424438476562,111.96597104492187Q136.83484438476563,111.57537104492187,138.78794438476564,110.99717104492188Q140.75674438476562,110.40347104492187,140.75674438476562,108.76287104492188L140.75674438476562,108.65347104492187Q140.75674438476562,106.85657104492188,139.52234438476563,105.88787104492188Q138.28794438476564,104.90347104492187,136.17864438476562,104.90347104492187Q133.92864438476562,104.90347104492187,132.55364438476562,105.80967104492187Q131.17864438476562,106.70037104492188,130.80364438476562,108.30967104492187L120.11612438476563,108.30967104492187Q120.80362438476563,103.10657104492188,124.89736438476562,99.66907104492188Q129.00674438476562,96.23157104492188,136.3505443847656,96.23157104492188Q140.9755443847656,96.23157104492188,144.61614438476562,97.66907104492188Q148.25674438476562,99.10657104492188,150.33484438476563,101.82537104492188Q152.42864438476562,104.52847104492187,152.42864438476562,108.40347104492187L152.42864438476562,133.23157104492188L141.41294438476564,133.23157104492188L141.41294438476564,127.77847104492187L141.13174438476562,127.77847104492187Q138.11614438476562,133.73157104492188,130.63174438476562,133.73157104492188ZM134.2255443847656,125.73157104492188Q136.92864438476562,125.73157104492188,138.83484438476563,124.13787104492187Q140.75674438476562,122.54407104492188,140.75674438476562,119.99717104492188L140.75674438476562,116.68467104492188Q139.80364438476562,117.18467104492188,138.08484438476563,117.52847104492187Q136.36614438476562,117.85657104492188,134.78794438476564,118.09097104492187Q129.75674438476562,118.84097104492187,129.75674438476562,122.18467104492188Q129.75674438476562,123.90347104492187,131.00674438476562,124.82537104492187Q132.25674438476562,125.73157104492188,134.2255443847656,125.73157104492188ZM175.15924438476563,133.73157104492188Q166.73734438476563,133.73157104492188,161.90924438476563,128.74717104492188Q157.09674438476563,123.74717104492188,157.09674438476563,115.01287104492187Q157.09674438476563,109.38787104492187,159.28424438476563,105.16907104492188Q161.47174438476563,100.93467104492187,165.44054438476562,98.59097104492187Q169.40924438476563,96.23157104492188,174.79984438476563,96.23157104492188Q179.87804438476562,96.23157104492188,183.76864438476562,98.32537104492188Q187.6748443847656,100.41907104492188,189.8779443847656,104.48157104492188Q192.09674438476563,108.52847104492187,192.09674438476563,114.40347104492187L192.09674438476563,117.23157104492188L168.76864438476562,117.23157104492188L168.76864438476562,117.54407104492188Q168.76864438476562,120.91907104492188,170.53424438476563,122.99717104492188Q172.31554438476562,125.05967104492188,175.36234438476563,125.05967104492188Q177.45614438476562,125.05967104492188,178.98734438476563,124.13787104492187Q180.53424438476563,123.21597104492187,181.14364438476562,121.46597104492187L191.97174438476563,121.46597104492187Q191.0029443847656,127.04407104492188,186.58114438476562,130.38787104492187Q182.1748443847656,133.73157104492188,175.15924438476563,133.73157104492188ZM168.76864438476562,110.23157104492188L181.09674438476563,110.23157104492188Q181.09674438476563,107.88787104492188,179.37804438476562,106.40347104492187Q177.65924438476563,104.90347104492187,175.00304438476562,104.90347104492187Q172.33114438476562,104.90347104492187,170.54984438476563,106.43467104492187Q168.76864438476562,107.95037104492188,168.76864438476562,110.23157104492188ZM209.10864438476563,112.76287104492187L209.10864438476563,133.23157104492188L197.43674438476563,133.23157104492188L197.43674438476563,84.23157104492188L208.73364438476563,84.23157104492188L208.73364438476563,103.76287104492188L209.13984438476564,103.76287104492188Q210.35864438476563,100.21597104492187,213.12424438476563,98.23157104492188Q215.88984438476564,96.23157104492188,219.9207443847656,96.23157104492188Q225.57774438476562,96.23157104492188,228.99974438476562,99.99717104492187Q232.43674438476563,103.74717104492187,232.43674438476563,109.95037104492187L232.43674438476563,133.23157104492188L220.7647443847656,133.23157104492188L220.7647443847656,112.59097104492187Q220.7647443847656,109.59097104492187,219.2647443847656,107.91907104492188Q217.78074438476563,106.23157104492188,215.06174438476563,106.23157104492188Q212.38984438476564,106.23157104492188,210.74924438476563,107.96597104492187Q209.10864438476563,109.68467104492188,209.10864438476563,112.76287104492187ZM246.02674438476564,147.23157104492188Q243.6827443847656,147.23157104492188,242.0267443847656,146.79407104492188Q240.37074438476563,146.37217104492186,239.37074438476563,145.96597104492187L241.9017443847656,137.07537104492187Q244.4017443847656,137.93467104492188,246.15174438476564,137.68467104492188Q247.91774438476563,137.43467104492188,248.85474438476564,135.48157104492188L249.32374438476563,134.26287104492187L236.5267443847656,96.23157104492188L248.52674438476564,96.23157104492188L255.16774438476563,122.41907104492188L255.54274438476563,122.41907104492188L262.26074438476564,96.23157104492188L274.3397443847656,96.23157104492188L260.74574438476566,136.54407104492188Q259.24574438476566,141.01277104492186,255.65174438476564,144.12217104492186Q252.07374438476563,147.23157104492188,246.02674438476564,147.23157104492188ZM294.46074438476563,133.73157104492188Q288.7727443847656,133.73157104492188,284.6477443847656,131.38787104492187Q280.53874438476566,129.02847104492187,278.3197443847656,124.80967104492188Q276.11674438476564,120.57537104492187,276.11674438476564,114.99717104492188Q276.11674438476564,109.38787104492187,278.3197443847656,105.16907104492188Q280.53874438476566,100.93467104492187,284.6477443847656,98.59097104492187Q288.7727443847656,96.23157104492188,294.46074438476563,96.23157104492188Q300.16374438476566,96.23157104492188,304.2727443847656,98.59097104492187Q308.3827443847656,100.93467104492187,310.58574438476563,105.16907104492188Q312.78874438476566,109.38787104492187,312.78874438476566,114.99717104492188Q312.78874438476566,120.57537104492187,310.58574438476563,124.80967104492188Q308.3827443847656,129.02847104492187,304.2727443847656,131.38787104492187Q300.16374438476566,133.73157104492188,294.46074438476563,133.73157104492188ZM294.53874438476566,125.05967104492188Q297.66374438476566,125.05967104492188,299.3827443847656,122.27847104492187Q301.11674438476564,119.48157104492188,301.11674438476564,114.99717104492188Q301.11674438476564,110.49717104492188,299.3827443847656,107.70037104492188Q297.66374438476566,104.90347104492187,294.53874438476566,104.90347104492187Q291.2727443847656,104.90347104492187,289.5227443847656,107.70037104492188Q287.78874438476566,110.49717104492188,287.78874438476566,114.99717104492188Q287.78874438476566,119.48157104492188,289.5227443847656,122.27847104492187Q291.2727443847656,125.05967104492188,294.53874438476566,125.05967104492188ZM318.4567443847656,133.23157104492188L318.4567443847656,84.23157104492188L330.12874438476564,84.23157104492188L330.12874438476564,109.48157104492188L330.6437443847656,109.48157104492188L340.7687443847656,96.23157104492188L353.75374438476564,96.23157104492188L340.9877443847656,112.34097104492187L354.2687443847656,133.23157104492188L341.03474438476565,133.23157104492188L332.4567443847656,119.23157104492188L330.12874438476564,122.12217104492188L330.12874438476564,133.23157104492188L318.4567443847656,133.23157104492188Z" fill="#0077FA" fill-opacity="1"/></g></g></g></g></svg>